# Wavefront OBJ file automatically generated by Tiled2Unity

# Vertices (Count = 267)
v -32 -16 0
v -48 -16 0
v -48 0 0
v -32 0 0
v -64 -16 0
v -64 0 0
v -80 -16 0
v -80 0 0
v -96 -16 0
v -96 0 0
v -112 -16 0
v -112 0 0
v -160 -16 0
v -176 -16 0
v -176 0 0
v -160 0 0
v -192 -16 0
v -192 0 0
v -208 -16 0
v -208 0 0
v -224 -16 0
v -224 0 0
v -240 -16 0
v -240 0 0
v -288 -16 0
v -304 -16 0
v -304 0 0
v -288 0 0
v -320 -16 0
v -320 0 0
v -336 -16 0
v -336 0 0
v -352 -16 0
v -352 0 0
v -368 -16 0
v -368 0 0
v -64 -64 0
v -80 -64 0
v -80 -48 0
v -64 -48 0
v -96 -64 0
v -96 -48 0
v -112 -64 0
v -112 -48 0
v -128 -64 0
v -128 -48 0
v -144 -64 0
v -144 -48 0
v -160 -64 0
v -160 -48 0
v -240 -64 0
v -256 -64 0
v -256 -48 0
v -240 -48 0
v -272 -64 0
v -272 -48 0
v -288 -64 0
v -288 -48 0
v -304 -64 0
v -304 -48 0
v -320 -64 0
v -320 -48 0
v -336 -64 0
v -336 -48 0
v -64 -80 0
v -80 -80 0
v -320 -80 0
v -336 -80 0
v -64 -96 0
v -80 -96 0
v -320 -96 0
v -336 -96 0
v -64 -112 0
v -80 -112 0
v -320 -112 0
v -336 -112 0
v -64 -128 0
v -80 -128 0
v -96 -128 0
v -96 -112 0
v -112 -128 0
v -112 -112 0
v -128 -128 0
v -128 -112 0
v -144 -128 0
v -144 -112 0
v -160 -128 0
v -160 -112 0
v -176 -128 0
v -176 -112 0
v -224 -128 0
v -240 -128 0
v -240 -112 0
v -224 -112 0
v -256 -128 0
v -256 -112 0
v -272 -128 0
v -272 -112 0
v -288 -128 0
v -288 -112 0
v -304 -128 0
v -304 -112 0
v -320 -128 0
v -336 -128 0
v -64 -144 0
v -80 -144 0
v -320 -144 0
v -336 -144 0
v -64 -160 0
v -80 -160 0
v -320 -160 0
v -336 -160 0
v -64 -176 0
v -80 -176 0
v -320 -176 0
v -336 -176 0
v -64 -192 0
v -80 -192 0
v -96 -192 0
v -96 -176 0
v -112 -192 0
v -112 -176 0
v -128 -192 0
v -128 -176 0
v -144 -192 0
v -144 -176 0
v -160 -192 0
v -160 -176 0
v -176 -192 0
v -176 -176 0
v -224 -192 0
v -240 -192 0
v -240 -176 0
v -224 -176 0
v -256 -192 0
v -256 -176 0
v -272 -192 0
v -272 -176 0
v -288 -192 0
v -288 -176 0
v -304 -192 0
v -304 -176 0
v -320 -192 0
v -336 -192 0
v -32 -256 0
v -48 -256 0
v -48 -240 0
v -32 -240 0
v -64 -256 0
v -64 -240 0
v -80 -256 0
v -80 -240 0
v -96 -256 0
v -96 -240 0
v -128 -256 0
v -144 -256 0
v -144 -240 0
v -128 -240 0
v -160 -256 0
v -160 -240 0
v -240 -256 0
v -256 -256 0
v -256 -240 0
v -240 -240 0
v -272 -256 0
v -272 -240 0
v -304 -256 0
v -320 -256 0
v -320 -240 0
v -304 -240 0
v -336 -256 0
v -336 -240 0
v -352 -256 0
v -352 -240 0
v -368 -256 0
v -368 -240 0
v -32 -320 0
v -48 -320 0
v -48 -304 0
v -32 -304 0
v -64 -320 0
v -64 -304 0
v -80 -320 0
v -80 -304 0
v -96 -320 0
v -96 -304 0
v -112 -320 0
v -112 -304 0
v -160 -320 0
v -176 -320 0
v -176 -304 0
v -160 -304 0
v -192 -320 0
v -192 -304 0
v -208 -320 0
v -208 -304 0
v -224 -320 0
v -224 -304 0
v -240 -320 0
v -240 -304 0
v -288 -320 0
v -304 -320 0
v -304 -304 0
v -288 -304 0
v -320 -320 0
v -320 -304 0
v -336 -320 0
v -336 -304 0
v -352 -320 0
v -352 -304 0
v -368 -320 0
v -368 -304 0
v 0 -32 0
v -32 -32 0
v 0 0 0
v -368 -32 0
v -400 -32 0
v -400 0 0
v 0 -48 0
v -32 -48 0
v 0 -16 0
v 0 -64 0
v -32 -64 0
v -368 -64 0
v -400 -64 0
v 0 -80 0
v -32 -80 0
v 0 -96 0
v -32 -96 0
v -368 -96 0
v -400 -96 0
v 0 -112 0
v -32 -112 0
v 0 -128 0
v -32 -128 0
v -368 -128 0
v -400 -128 0
v 0 -144 0
v -32 -144 0
v 0 -160 0
v -32 -160 0
v -368 -160 0
v -400 -160 0
v 0 -176 0
v -32 -176 0
v 0 -192 0
v -32 -192 0
v -368 -192 0
v -400 -192 0
v 0 -208 0
v -32 -208 0
v 0 -224 0
v -32 -224 0
v -368 -224 0
v -400 -224 0
v 0 -240 0
v 0 -256 0
v -400 -256 0
v 0 -272 0
v -32 -272 0
v 0 -288 0
v -32 -288 0
v -368 -288 0
v -400 -288 0
v 0 -304 0
v 0 -320 0
v -400 -320 0

# Texture cooridinates (Count = 8)
vt 6.103516E-05 0.0001220703
vt 0.499939 0.0001220703
vt 0.499939 0.9998779
vt 6.103516E-05 0.9998779
vt 0.0001220703 0.0001220703
vt 0.9998779 0.0001220703
vt 0.9998779 0.9998779
vt 0.0001220703 0.9998779

# Normal
vn 0 0 -1

# Groups (Count = 1)

g mesh_0001
f 1/1/1 2/2/1 3/3/1 4/4/1
f 2/1/1 5/2/1 6/3/1 3/4/1
f 5/1/1 7/2/1 8/3/1 6/4/1
f 7/1/1 9/2/1 10/3/1 8/4/1
f 9/1/1 11/2/1 12/3/1 10/4/1
f 13/1/1 14/2/1 15/3/1 16/4/1
f 14/1/1 17/2/1 18/3/1 15/4/1
f 17/1/1 19/2/1 20/3/1 18/4/1
f 19/1/1 21/2/1 22/3/1 20/4/1
f 21/1/1 23/2/1 24/3/1 22/4/1
f 25/1/1 26/2/1 27/3/1 28/4/1
f 26/1/1 29/2/1 30/3/1 27/4/1
f 29/1/1 31/2/1 32/3/1 30/4/1
f 31/1/1 33/2/1 34/3/1 32/4/1
f 33/1/1 35/2/1 36/3/1 34/4/1
f 37/1/1 38/2/1 39/3/1 40/4/1
f 38/1/1 41/2/1 42/3/1 39/4/1
f 41/1/1 43/2/1 44/3/1 42/4/1
f 43/1/1 45/2/1 46/3/1 44/4/1
f 45/1/1 47/2/1 48/3/1 46/4/1
f 47/1/1 49/2/1 50/3/1 48/4/1
f 51/1/1 52/2/1 53/3/1 54/4/1
f 52/1/1 55/2/1 56/3/1 53/4/1
f 55/1/1 57/2/1 58/3/1 56/4/1
f 57/1/1 59/2/1 60/3/1 58/4/1
f 59/1/1 61/2/1 62/3/1 60/4/1
f 61/1/1 63/2/1 64/3/1 62/4/1
f 65/1/1 66/2/1 38/3/1 37/4/1
f 67/1/1 68/2/1 63/3/1 61/4/1
f 69/1/1 70/2/1 66/3/1 65/4/1
f 71/1/1 72/2/1 68/3/1 67/4/1
f 73/1/1 74/2/1 70/3/1 69/4/1
f 75/1/1 76/2/1 72/3/1 71/4/1
f 77/1/1 78/2/1 74/3/1 73/4/1
f 78/1/1 79/2/1 80/3/1 74/4/1
f 79/1/1 81/2/1 82/3/1 80/4/1
f 81/1/1 83/2/1 84/3/1 82/4/1
f 83/1/1 85/2/1 86/3/1 84/4/1
f 85/1/1 87/2/1 88/3/1 86/4/1
f 87/1/1 89/2/1 90/3/1 88/4/1
f 91/1/1 92/2/1 93/3/1 94/4/1
f 92/1/1 95/2/1 96/3/1 93/4/1
f 95/1/1 97/2/1 98/3/1 96/4/1
f 97/1/1 99/2/1 100/3/1 98/4/1
f 99/1/1 101/2/1 102/3/1 100/4/1
f 101/1/1 103/2/1 75/3/1 102/4/1
f 103/1/1 104/2/1 76/3/1 75/4/1
f 105/1/1 106/2/1 78/3/1 77/4/1
f 107/1/1 108/2/1 104/3/1 103/4/1
f 109/1/1 110/2/1 106/3/1 105/4/1
f 111/1/1 112/2/1 108/3/1 107/4/1
f 113/1/1 114/2/1 110/3/1 109/4/1
f 115/1/1 116/2/1 112/3/1 111/4/1
f 117/1/1 118/2/1 114/3/1 113/4/1
f 118/1/1 119/2/1 120/3/1 114/4/1
f 119/1/1 121/2/1 122/3/1 120/4/1
f 121/1/1 123/2/1 124/3/1 122/4/1
f 123/1/1 125/2/1 126/3/1 124/4/1
f 125/1/1 127/2/1 128/3/1 126/4/1
f 127/1/1 129/2/1 130/3/1 128/4/1
f 131/1/1 132/2/1 133/3/1 134/4/1
f 132/1/1 135/2/1 136/3/1 133/4/1
f 135/1/1 137/2/1 138/3/1 136/4/1
f 137/1/1 139/2/1 140/3/1 138/4/1
f 139/1/1 141/2/1 142/3/1 140/4/1
f 141/1/1 143/2/1 115/3/1 142/4/1
f 143/1/1 144/2/1 116/3/1 115/4/1
f 145/1/1 146/2/1 147/3/1 148/4/1
f 146/1/1 149/2/1 150/3/1 147/4/1
f 149/1/1 151/2/1 152/3/1 150/4/1
f 151/1/1 153/2/1 154/3/1 152/4/1
f 155/1/1 156/2/1 157/3/1 158/4/1
f 156/1/1 159/2/1 160/3/1 157/4/1
f 161/1/1 162/2/1 163/3/1 164/4/1
f 162/1/1 165/2/1 166/3/1 163/4/1
f 167/1/1 168/2/1 169/3/1 170/4/1
f 168/1/1 171/2/1 172/3/1 169/4/1
f 171/1/1 173/2/1 174/3/1 172/4/1
f 173/1/1 175/2/1 176/3/1 174/4/1
f 177/1/1 178/2/1 179/3/1 180/4/1
f 178/1/1 181/2/1 182/3/1 179/4/1
f 181/1/1 183/2/1 184/3/1 182/4/1
f 183/1/1 185/2/1 186/3/1 184/4/1
f 185/1/1 187/2/1 188/3/1 186/4/1
f 189/1/1 190/2/1 191/3/1 192/4/1
f 190/1/1 193/2/1 194/3/1 191/4/1
f 193/1/1 195/2/1 196/3/1 194/4/1
f 195/1/1 197/2/1 198/3/1 196/4/1
f 197/1/1 199/2/1 200/3/1 198/4/1
f 201/1/1 202/2/1 203/3/1 204/4/1
f 202/1/1 205/2/1 206/3/1 203/4/1
f 205/1/1 207/2/1 208/3/1 206/4/1
f 207/1/1 209/2/1 210/3/1 208/4/1
f 209/1/1 211/2/1 212/3/1 210/4/1

g mesh_0002
f 213/5/1 214/6/1 4/7/1 215/8/1
f 216/5/1 217/6/1 218/7/1 36/8/1
f 219/5/1 220/6/1 1/7/1 221/8/1
f 222/5/1 223/6/1 214/7/1 213/8/1
f 224/5/1 225/6/1 217/7/1 216/8/1
f 226/5/1 227/6/1 220/7/1 219/8/1
f 228/5/1 229/6/1 223/7/1 222/8/1
f 230/5/1 231/6/1 225/7/1 224/8/1
f 232/5/1 233/6/1 227/7/1 226/8/1
f 234/5/1 235/6/1 229/7/1 228/8/1
f 236/5/1 237/6/1 231/7/1 230/8/1
f 238/5/1 239/6/1 233/7/1 232/8/1
f 240/5/1 241/6/1 235/7/1 234/8/1
f 242/5/1 243/6/1 237/7/1 236/8/1
f 244/5/1 245/6/1 239/7/1 238/8/1
f 246/5/1 247/6/1 241/7/1 240/8/1
f 248/5/1 249/6/1 243/7/1 242/8/1
f 250/5/1 251/6/1 245/7/1 244/8/1
f 252/5/1 253/6/1 247/7/1 246/8/1
f 254/5/1 255/6/1 249/7/1 248/8/1
f 256/5/1 148/6/1 251/7/1 250/8/1
f 257/5/1 145/6/1 253/7/1 252/8/1
f 175/5/1 258/6/1 255/7/1 254/8/1
f 259/5/1 260/6/1 148/7/1 256/8/1
f 261/5/1 262/6/1 145/7/1 257/8/1
f 263/5/1 264/6/1 258/7/1 175/8/1
f 265/5/1 180/6/1 260/7/1 259/8/1
f 266/5/1 177/6/1 262/7/1 261/8/1
f 211/5/1 267/6/1 264/7/1 263/8/1

