# Wavefront OBJ file automatically generated by Tiled2Unity

# Vertices (Count = 258)
v -32 -16 0
v -48 -16 0
v -48 0 0
v -32 0 0
v -64 -16 0
v -64 0 0
v -80 -16 0
v -80 0 0
v -96 -16 0
v -96 0 0
v -112 -16 0
v -112 0 0
v -160 -16 0
v -176 -16 0
v -176 0 0
v -160 0 0
v -192 -16 0
v -192 0 0
v -208 -16 0
v -208 0 0
v -224 -16 0
v -224 0 0
v -240 -16 0
v -240 0 0
v -288 -16 0
v -304 -16 0
v -304 0 0
v -288 0 0
v -320 -16 0
v -320 0 0
v -336 -16 0
v -336 0 0
v -352 -16 0
v -352 0 0
v -368 -16 0
v -368 0 0
v -96 -32 0
v -112 -32 0
v -128 -32 0
v -128 -16 0
v -272 -32 0
v -288 -32 0
v -272 -16 0
v -304 -32 0
v -64 -80 0
v -80 -80 0
v -80 -64 0
v -64 -64 0
v -96 -80 0
v -96 -64 0
v -112 -80 0
v -112 -64 0
v -128 -80 0
v -128 -64 0
v -144 -80 0
v -144 -64 0
v -160 -80 0
v -160 -64 0
v -176 -80 0
v -176 -64 0
v -224 -80 0
v -240 -80 0
v -240 -64 0
v -224 -64 0
v -256 -80 0
v -256 -64 0
v -272 -80 0
v -272 -64 0
v -288 -80 0
v -288 -64 0
v -304 -80 0
v -304 -64 0
v -320 -80 0
v -320 -64 0
v -336 -80 0
v -336 -64 0
v -64 -96 0
v -80 -96 0
v -144 -96 0
v -160 -96 0
v -176 -96 0
v -224 -96 0
v -240 -96 0
v -256 -96 0
v -320 -96 0
v -336 -96 0
v -64 -112 0
v -80 -112 0
v -144 -112 0
v -160 -112 0
v -176 -112 0
v -224 -112 0
v -240 -112 0
v -256 -112 0
v -320 -112 0
v -336 -112 0
v -64 -128 0
v -80 -128 0
v -96 -128 0
v -96 -112 0
v -112 -128 0
v -112 -112 0
v -144 -128 0
v -160 -128 0
v -176 -128 0
v -224 -128 0
v -240 -128 0
v -256 -128 0
v -288 -128 0
v -304 -128 0
v -304 -112 0
v -288 -112 0
v -320 -128 0
v -336 -128 0
v -144 -144 0
v -160 -144 0
v -176 -144 0
v -224 -144 0
v -240 -144 0
v -256 -144 0
v -144 -160 0
v -160 -160 0
v -176 -160 0
v -224 -160 0
v -240 -160 0
v -256 -160 0
v -64 -192 0
v -80 -192 0
v -80 -176 0
v -64 -176 0
v -96 -192 0
v -96 -176 0
v -112 -192 0
v -112 -176 0
v -288 -192 0
v -304 -192 0
v -304 -176 0
v -288 -176 0
v -320 -192 0
v -320 -176 0
v -336 -192 0
v -336 -176 0
v -64 -208 0
v -80 -208 0
v -320 -208 0
v -336 -208 0
v -64 -224 0
v -80 -224 0
v -320 -224 0
v -336 -224 0
v -64 -240 0
v -80 -240 0
v -320 -240 0
v -336 -240 0
v -64 -256 0
v -80 -256 0
v -96 -256 0
v -96 -240 0
v -112 -256 0
v -112 -240 0
v -128 -256 0
v -128 -240 0
v -144 -256 0
v -144 -240 0
v -176 -256 0
v -192 -256 0
v -192 -240 0
v -176 -240 0
v -208 -256 0
v -208 -240 0
v -224 -256 0
v -224 -240 0
v -256 -256 0
v -272 -256 0
v -272 -240 0
v -256 -240 0
v -288 -256 0
v -288 -240 0
v -304 -256 0
v -304 -240 0
v -320 -256 0
v -336 -256 0
v -32 -320 0
v -48 -320 0
v -48 -304 0
v -32 -304 0
v -64 -320 0
v -64 -304 0
v -80 -320 0
v -80 -304 0
v -96 -320 0
v -96 -304 0
v -112 -320 0
v -112 -304 0
v -160 -320 0
v -176 -320 0
v -176 -304 0
v -160 -304 0
v -192 -320 0
v -192 -304 0
v -208 -320 0
v -208 -304 0
v -224 -320 0
v -224 -304 0
v -240 -320 0
v -240 -304 0
v -288 -320 0
v -304 -320 0
v -304 -304 0
v -288 -304 0
v -320 -320 0
v -320 -304 0
v -336 -320 0
v -336 -304 0
v -352 -320 0
v -352 -304 0
v -368 -320 0
v -368 -304 0
v 0 -32 0
v -32 -32 0
v 0 0 0
v -368 -32 0
v -400 -32 0
v -400 0 0
v 0 -64 0
v -32 -64 0
v -368 -64 0
v -400 -64 0
v 0 -96 0
v -32 -96 0
v -368 -96 0
v -400 -96 0
v 0 -128 0
v -32 -128 0
v -368 -128 0
v -400 -128 0
v 0 -160 0
v -32 -160 0
v -368 -160 0
v -400 -160 0
v 0 -192 0
v -32 -192 0
v -368 -192 0
v -400 -192 0
v 0 -224 0
v -32 -224 0
v -368 -224 0
v -400 -224 0
v 0 -256 0
v -32 -256 0
v -368 -256 0
v -400 -256 0
v 0 -288 0
v -32 -288 0
v -368 -288 0
v -400 -288 0
v 0 -320 0
v -400 -320 0

# Texture cooridinates (Count = 4)
vt 0.0001220703 0.0001220703
vt 0.9998779 0.0001220703
vt 0.9998779 0.9998779
vt 0.0001220703 0.9998779

# Normal
vn 0 0 -1

# Groups (Count = 1)

g mesh_0001
f 1/1/1 2/2/1 3/3/1 4/4/1
f 2/1/1 5/2/1 6/3/1 3/4/1
f 5/1/1 7/2/1 8/3/1 6/4/1
f 7/1/1 9/2/1 10/3/1 8/4/1
f 9/1/1 11/2/1 12/3/1 10/4/1
f 13/1/1 14/2/1 15/3/1 16/4/1
f 14/1/1 17/2/1 18/3/1 15/4/1
f 17/1/1 19/2/1 20/3/1 18/4/1
f 19/1/1 21/2/1 22/3/1 20/4/1
f 21/1/1 23/2/1 24/3/1 22/4/1
f 25/1/1 26/2/1 27/3/1 28/4/1
f 26/1/1 29/2/1 30/3/1 27/4/1
f 29/1/1 31/2/1 32/3/1 30/4/1
f 31/1/1 33/2/1 34/3/1 32/4/1
f 33/1/1 35/2/1 36/3/1 34/4/1
f 37/1/1 38/2/1 11/3/1 9/4/1
f 38/1/1 39/2/1 40/3/1 11/4/1
f 41/1/1 42/2/1 25/3/1 43/4/1
f 42/1/1 44/2/1 26/3/1 25/4/1
f 45/1/1 46/2/1 47/3/1 48/4/1
f 46/1/1 49/2/1 50/3/1 47/4/1
f 49/1/1 51/2/1 52/3/1 50/4/1
f 51/1/1 53/2/1 54/3/1 52/4/1
f 53/1/1 55/2/1 56/3/1 54/4/1
f 55/1/1 57/2/1 58/3/1 56/4/1
f 57/1/1 59/2/1 60/3/1 58/4/1
f 61/1/1 62/2/1 63/3/1 64/4/1
f 62/1/1 65/2/1 66/3/1 63/4/1
f 65/1/1 67/2/1 68/3/1 66/4/1
f 67/1/1 69/2/1 70/3/1 68/4/1
f 69/1/1 71/2/1 72/3/1 70/4/1
f 71/1/1 73/2/1 74/3/1 72/4/1
f 73/1/1 75/2/1 76/3/1 74/4/1
f 77/1/1 78/2/1 46/3/1 45/4/1
f 79/1/1 80/2/1 57/3/1 55/4/1
f 80/1/1 81/2/1 59/3/1 57/4/1
f 82/1/1 83/2/1 62/3/1 61/4/1
f 83/1/1 84/2/1 65/3/1 62/4/1
f 85/1/1 86/2/1 75/3/1 73/4/1
f 87/1/1 88/2/1 78/3/1 77/4/1
f 89/1/1 90/2/1 80/3/1 79/4/1
f 90/1/1 91/2/1 81/3/1 80/4/1
f 92/1/1 93/2/1 83/3/1 82/4/1
f 93/1/1 94/2/1 84/3/1 83/4/1
f 95/1/1 96/2/1 86/3/1 85/4/1
f 97/1/1 98/2/1 88/3/1 87/4/1
f 98/1/1 99/2/1 100/3/1 88/4/1
f 99/1/1 101/2/1 102/3/1 100/4/1
f 103/1/1 104/2/1 90/3/1 89/4/1
f 104/1/1 105/2/1 91/3/1 90/4/1
f 106/1/1 107/2/1 93/3/1 92/4/1
f 107/1/1 108/2/1 94/3/1 93/4/1
f 109/1/1 110/2/1 111/3/1 112/4/1
f 110/1/1 113/2/1 95/3/1 111/4/1
f 113/1/1 114/2/1 96/3/1 95/4/1
f 115/1/1 116/2/1 104/3/1 103/4/1
f 116/1/1 117/2/1 105/3/1 104/4/1
f 118/1/1 119/2/1 107/3/1 106/4/1
f 119/1/1 120/2/1 108/3/1 107/4/1
f 121/1/1 122/2/1 116/3/1 115/4/1
f 122/1/1 123/2/1 117/3/1 116/4/1
f 124/1/1 125/2/1 119/3/1 118/4/1
f 125/1/1 126/2/1 120/3/1 119/4/1
f 127/1/1 128/2/1 129/3/1 130/4/1
f 128/1/1 131/2/1 132/3/1 129/4/1
f 131/1/1 133/2/1 134/3/1 132/4/1
f 135/1/1 136/2/1 137/3/1 138/4/1
f 136/1/1 139/2/1 140/3/1 137/4/1
f 139/1/1 141/2/1 142/3/1 140/4/1
f 143/1/1 144/2/1 128/3/1 127/4/1
f 145/1/1 146/2/1 141/3/1 139/4/1
f 147/1/1 148/2/1 144/3/1 143/4/1
f 149/1/1 150/2/1 146/3/1 145/4/1
f 151/1/1 152/2/1 148/3/1 147/4/1
f 153/1/1 154/2/1 150/3/1 149/4/1
f 155/1/1 156/2/1 152/3/1 151/4/1
f 156/1/1 157/2/1 158/3/1 152/4/1
f 157/1/1 159/2/1 160/3/1 158/4/1
f 159/1/1 161/2/1 162/3/1 160/4/1
f 161/1/1 163/2/1 164/3/1 162/4/1
f 165/1/1 166/2/1 167/3/1 168/4/1
f 166/1/1 169/2/1 170/3/1 167/4/1
f 169/1/1 171/2/1 172/3/1 170/4/1
f 173/1/1 174/2/1 175/3/1 176/4/1
f 174/1/1 177/2/1 178/3/1 175/4/1
f 177/1/1 179/2/1 180/3/1 178/4/1
f 179/1/1 181/2/1 153/3/1 180/4/1
f 181/1/1 182/2/1 154/3/1 153/4/1
f 183/1/1 184/2/1 185/3/1 186/4/1
f 184/1/1 187/2/1 188/3/1 185/4/1
f 187/1/1 189/2/1 190/3/1 188/4/1
f 189/1/1 191/2/1 192/3/1 190/4/1
f 191/1/1 193/2/1 194/3/1 192/4/1
f 195/1/1 196/2/1 197/3/1 198/4/1
f 196/1/1 199/2/1 200/3/1 197/4/1
f 199/1/1 201/2/1 202/3/1 200/4/1
f 201/1/1 203/2/1 204/3/1 202/4/1
f 203/1/1 205/2/1 206/3/1 204/4/1
f 207/1/1 208/2/1 209/3/1 210/4/1
f 208/1/1 211/2/1 212/3/1 209/4/1
f 211/1/1 213/2/1 214/3/1 212/4/1
f 213/1/1 215/2/1 216/3/1 214/4/1
f 215/1/1 217/2/1 218/3/1 216/4/1

g mesh_0002
f 219/1/1 220/2/1 4/3/1 221/4/1
f 222/1/1 223/2/1 224/3/1 36/4/1
f 225/1/1 226/2/1 220/3/1 219/4/1
f 227/1/1 228/2/1 223/3/1 222/4/1
f 229/1/1 230/2/1 226/3/1 225/4/1
f 231/1/1 232/2/1 228/3/1 227/4/1
f 233/1/1 234/2/1 230/3/1 229/4/1
f 235/1/1 236/2/1 232/3/1 231/4/1
f 237/1/1 238/2/1 234/3/1 233/4/1
f 239/1/1 240/2/1 236/3/1 235/4/1
f 241/1/1 242/2/1 238/3/1 237/4/1
f 243/1/1 244/2/1 240/3/1 239/4/1
f 245/1/1 246/2/1 242/3/1 241/4/1
f 247/1/1 248/2/1 244/3/1 243/4/1
f 249/1/1 250/2/1 246/3/1 245/4/1
f 251/1/1 252/2/1 248/3/1 247/4/1
f 253/1/1 254/2/1 250/3/1 249/4/1
f 255/1/1 256/2/1 252/3/1 251/4/1
f 257/1/1 183/2/1 254/3/1 253/4/1
f 217/1/1 258/2/1 256/3/1 255/4/1

