# Wavefront OBJ file automatically generated by Tiled2Unity

# Vertices (Count = 302)
v 0 -16 0
v -16 -16 0
v -16 0 0
v 0 0 0
v -32 -16 0
v -32 0 0
v -48 -16 0
v -48 0 0
v -64 -16 0
v -64 0 0
v -80 -16 0
v -80 0 0
v -96 -16 0
v -96 0 0
v -112 -16 0
v -112 0 0
v -128 -16 0
v -128 0 0
v -144 -16 0
v -144 0 0
v -160 -16 0
v -160 0 0
v -176 -16 0
v -176 0 0
v -192 -16 0
v -192 0 0
v -208 -16 0
v -208 0 0
v -224 -16 0
v -224 0 0
v -240 -16 0
v -240 0 0
v -256 -16 0
v -256 0 0
v -272 -16 0
v -272 0 0
v -288 -16 0
v -288 0 0
v -304 -16 0
v -304 0 0
v -320 -16 0
v -320 0 0
v -336 -16 0
v -336 0 0
v -352 -16 0
v -352 0 0
v -368 -16 0
v -368 0 0
v -384 -16 0
v -384 0 0
v -400 -16 0
v -400 0 0
v 0 -32 0
v -16 -32 0
v -32 -32 0
v -368 -32 0
v -384 -32 0
v -400 -32 0
v 0 -48 0
v -16 -48 0
v -32 -48 0
v -368 -48 0
v -384 -48 0
v -400 -48 0
v 0 -64 0
v -16 -64 0
v -32 -64 0
v -368 -64 0
v -384 -64 0
v -400 -64 0
v 0 -80 0
v -16 -80 0
v -32 -80 0
v -368 -80 0
v -384 -80 0
v -400 -80 0
v 0 -96 0
v -16 -96 0
v -32 -96 0
v -368 -96 0
v -384 -96 0
v -400 -96 0
v 0 -112 0
v -16 -112 0
v -32 -112 0
v -368 -112 0
v -384 -112 0
v -400 -112 0
v 0 -128 0
v -16 -128 0
v -32 -128 0
v -48 -128 0
v -48 -112 0
v -64 -128 0
v -64 -112 0
v -112 -128 0
v -128 -128 0
v -128 -112 0
v -112 -112 0
v -144 -128 0
v -144 -112 0
v -160 -128 0
v -160 -112 0
v -176 -128 0
v -176 -112 0
v -192 -128 0
v -192 -112 0
v -208 -128 0
v -208 -112 0
v -224 -128 0
v -224 -112 0
v -240 -128 0
v -240 -112 0
v -256 -128 0
v -256 -112 0
v -272 -128 0
v -272 -112 0
v -288 -128 0
v -288 -112 0
v -336 -128 0
v -352 -128 0
v -352 -112 0
v -336 -112 0
v -368 -128 0
v -384 -128 0
v -400 -128 0
v 0 -144 0
v -16 -144 0
v -32 -144 0
v -368 -144 0
v -384 -144 0
v -400 -144 0
v 0 -160 0
v -16 -160 0
v -32 -160 0
v -368 -160 0
v -384 -160 0
v -400 -160 0
v 0 -176 0
v -16 -176 0
v -32 -176 0
v -368 -176 0
v -384 -176 0
v -400 -176 0
v 0 -192 0
v -16 -192 0
v -32 -192 0
v -48 -192 0
v -48 -176 0
v -64 -192 0
v -64 -176 0
v -112 -192 0
v -128 -192 0
v -128 -176 0
v -112 -176 0
v -144 -192 0
v -144 -176 0
v -160 -192 0
v -160 -176 0
v -176 -192 0
v -176 -176 0
v -192 -192 0
v -192 -176 0
v -208 -192 0
v -208 -176 0
v -224 -192 0
v -224 -176 0
v -240 -192 0
v -240 -176 0
v -256 -192 0
v -256 -176 0
v -272 -192 0
v -272 -176 0
v -288 -192 0
v -288 -176 0
v -336 -192 0
v -352 -192 0
v -352 -176 0
v -336 -176 0
v -368 -192 0
v -384 -192 0
v -400 -192 0
v 0 -208 0
v -16 -208 0
v -32 -208 0
v -368 -208 0
v -384 -208 0
v -400 -208 0
v 0 -224 0
v -16 -224 0
v -32 -224 0
v -368 -224 0
v -384 -224 0
v -400 -224 0
v 0 -240 0
v -16 -240 0
v -32 -240 0
v -368 -240 0
v -384 -240 0
v -400 -240 0
v 0 -256 0
v -16 -256 0
v -32 -256 0
v -48 -256 0
v -48 -240 0
v -64 -256 0
v -64 -240 0
v -112 -256 0
v -128 -256 0
v -128 -240 0
v -112 -240 0
v -144 -256 0
v -144 -240 0
v -160 -256 0
v -160 -240 0
v -176 -256 0
v -176 -240 0
v -192 -256 0
v -192 -240 0
v -208 -256 0
v -208 -240 0
v -224 -256 0
v -224 -240 0
v -240 -256 0
v -240 -240 0
v -256 -256 0
v -256 -240 0
v -272 -256 0
v -272 -240 0
v -288 -256 0
v -288 -240 0
v -336 -256 0
v -352 -256 0
v -352 -240 0
v -336 -240 0
v -368 -256 0
v -384 -256 0
v -400 -256 0
v 0 -272 0
v -16 -272 0
v -32 -272 0
v -368 -272 0
v -384 -272 0
v -400 -272 0
v 0 -288 0
v -16 -288 0
v -32 -288 0
v -368 -288 0
v -384 -288 0
v -400 -288 0
v 0 -304 0
v -16 -304 0
v -32 -304 0
v -368 -304 0
v -384 -304 0
v -400 -304 0
v 0 -320 0
v -16 -320 0
v -32 -320 0
v -48 -320 0
v -48 -304 0
v -64 -320 0
v -64 -304 0
v -80 -320 0
v -80 -304 0
v -96 -320 0
v -96 -304 0
v -112 -320 0
v -112 -304 0
v -128 -320 0
v -128 -304 0
v -144 -320 0
v -144 -304 0
v -160 -320 0
v -160 -304 0
v -176 -320 0
v -176 -304 0
v -192 -320 0
v -192 -304 0
v -208 -320 0
v -208 -304 0
v -224 -320 0
v -224 -304 0
v -240 -320 0
v -240 -304 0
v -256 -320 0
v -256 -304 0
v -272 -320 0
v -272 -304 0
v -288 -320 0
v -288 -304 0
v -304 -320 0
v -304 -304 0
v -320 -320 0
v -320 -304 0
v -336 -320 0
v -336 -304 0
v -352 -320 0
v -352 -304 0
v -368 -320 0
v -384 -320 0
v -400 -320 0

# Texture cooridinates (Count = 4)
vt 0.0001220703 0.0001220703
vt 0.9998779 0.0001220703
vt 0.9998779 0.9998779
vt 0.0001220703 0.9998779

# Normal
vn 0 0 -1

# Groups (Count = 1)

g mesh_0001
f 1/1/1 2/2/1 3/3/1 4/4/1
f 2/1/1 5/2/1 6/3/1 3/4/1
f 5/1/1 7/2/1 8/3/1 6/4/1
f 7/1/1 9/2/1 10/3/1 8/4/1
f 9/1/1 11/2/1 12/3/1 10/4/1
f 11/1/1 13/2/1 14/3/1 12/4/1
f 13/1/1 15/2/1 16/3/1 14/4/1
f 15/1/1 17/2/1 18/3/1 16/4/1
f 17/1/1 19/2/1 20/3/1 18/4/1
f 19/1/1 21/2/1 22/3/1 20/4/1
f 21/1/1 23/2/1 24/3/1 22/4/1
f 23/1/1 25/2/1 26/3/1 24/4/1
f 25/1/1 27/2/1 28/3/1 26/4/1
f 27/1/1 29/2/1 30/3/1 28/4/1
f 29/1/1 31/2/1 32/3/1 30/4/1
f 31/1/1 33/2/1 34/3/1 32/4/1
f 33/1/1 35/2/1 36/3/1 34/4/1
f 35/1/1 37/2/1 38/3/1 36/4/1
f 37/1/1 39/2/1 40/3/1 38/4/1
f 39/1/1 41/2/1 42/3/1 40/4/1
f 41/1/1 43/2/1 44/3/1 42/4/1
f 43/1/1 45/2/1 46/3/1 44/4/1
f 45/1/1 47/2/1 48/3/1 46/4/1
f 47/1/1 49/2/1 50/3/1 48/4/1
f 49/1/1 51/2/1 52/3/1 50/4/1
f 53/1/1 54/2/1 2/3/1 1/4/1
f 54/1/1 55/2/1 5/3/1 2/4/1
f 56/1/1 57/2/1 49/3/1 47/4/1
f 57/1/1 58/2/1 51/3/1 49/4/1
f 59/1/1 60/2/1 54/3/1 53/4/1
f 60/1/1 61/2/1 55/3/1 54/4/1
f 62/1/1 63/2/1 57/3/1 56/4/1
f 63/1/1 64/2/1 58/3/1 57/4/1
f 65/1/1 66/2/1 60/3/1 59/4/1
f 66/1/1 67/2/1 61/3/1 60/4/1
f 68/1/1 69/2/1 63/3/1 62/4/1
f 69/1/1 70/2/1 64/3/1 63/4/1
f 71/1/1 72/2/1 66/3/1 65/4/1
f 72/1/1 73/2/1 67/3/1 66/4/1
f 74/1/1 75/2/1 69/3/1 68/4/1
f 75/1/1 76/2/1 70/3/1 69/4/1
f 77/1/1 78/2/1 72/3/1 71/4/1
f 78/1/1 79/2/1 73/3/1 72/4/1
f 80/1/1 81/2/1 75/3/1 74/4/1
f 81/1/1 82/2/1 76/3/1 75/4/1
f 83/1/1 84/2/1 78/3/1 77/4/1
f 84/1/1 85/2/1 79/3/1 78/4/1
f 86/1/1 87/2/1 81/3/1 80/4/1
f 87/1/1 88/2/1 82/3/1 81/4/1
f 89/1/1 90/2/1 84/3/1 83/4/1
f 90/1/1 91/2/1 85/3/1 84/4/1
f 91/1/1 92/2/1 93/3/1 85/4/1
f 92/1/1 94/2/1 95/3/1 93/4/1
f 96/1/1 97/2/1 98/3/1 99/4/1
f 97/1/1 100/2/1 101/3/1 98/4/1
f 100/1/1 102/2/1 103/3/1 101/4/1
f 102/1/1 104/2/1 105/3/1 103/4/1
f 104/1/1 106/2/1 107/3/1 105/4/1
f 106/1/1 108/2/1 109/3/1 107/4/1
f 108/1/1 110/2/1 111/3/1 109/4/1
f 110/1/1 112/2/1 113/3/1 111/4/1
f 112/1/1 114/2/1 115/3/1 113/4/1
f 114/1/1 116/2/1 117/3/1 115/4/1
f 116/1/1 118/2/1 119/3/1 117/4/1
f 120/1/1 121/2/1 122/3/1 123/4/1
f 121/1/1 124/2/1 86/3/1 122/4/1
f 124/1/1 125/2/1 87/3/1 86/4/1
f 125/1/1 126/2/1 88/3/1 87/4/1
f 127/1/1 128/2/1 90/3/1 89/4/1
f 128/1/1 129/2/1 91/3/1 90/4/1
f 130/1/1 131/2/1 125/3/1 124/4/1
f 131/1/1 132/2/1 126/3/1 125/4/1
f 133/1/1 134/2/1 128/3/1 127/4/1
f 134/1/1 135/2/1 129/3/1 128/4/1
f 136/1/1 137/2/1 131/3/1 130/4/1
f 137/1/1 138/2/1 132/3/1 131/4/1
f 139/1/1 140/2/1 134/3/1 133/4/1
f 140/1/1 141/2/1 135/3/1 134/4/1
f 142/1/1 143/2/1 137/3/1 136/4/1
f 143/1/1 144/2/1 138/3/1 137/4/1
f 145/1/1 146/2/1 140/3/1 139/4/1
f 146/1/1 147/2/1 141/3/1 140/4/1
f 147/1/1 148/2/1 149/3/1 141/4/1
f 148/1/1 150/2/1 151/3/1 149/4/1
f 152/1/1 153/2/1 154/3/1 155/4/1
f 153/1/1 156/2/1 157/3/1 154/4/1
f 156/1/1 158/2/1 159/3/1 157/4/1
f 158/1/1 160/2/1 161/3/1 159/4/1
f 160/1/1 162/2/1 163/3/1 161/4/1
f 162/1/1 164/2/1 165/3/1 163/4/1
f 164/1/1 166/2/1 167/3/1 165/4/1
f 166/1/1 168/2/1 169/3/1 167/4/1
f 168/1/1 170/2/1 171/3/1 169/4/1
f 170/1/1 172/2/1 173/3/1 171/4/1
f 172/1/1 174/2/1 175/3/1 173/4/1
f 176/1/1 177/2/1 178/3/1 179/4/1
f 177/1/1 180/2/1 142/3/1 178/4/1
f 180/1/1 181/2/1 143/3/1 142/4/1
f 181/1/1 182/2/1 144/3/1 143/4/1
f 183/1/1 184/2/1 146/3/1 145/4/1
f 184/1/1 185/2/1 147/3/1 146/4/1
f 186/1/1 187/2/1 181/3/1 180/4/1
f 187/1/1 188/2/1 182/3/1 181/4/1
f 189/1/1 190/2/1 184/3/1 183/4/1
f 190/1/1 191/2/1 185/3/1 184/4/1
f 192/1/1 193/2/1 187/3/1 186/4/1
f 193/1/1 194/2/1 188/3/1 187/4/1
f 195/1/1 196/2/1 190/3/1 189/4/1
f 196/1/1 197/2/1 191/3/1 190/4/1
f 198/1/1 199/2/1 193/3/1 192/4/1
f 199/1/1 200/2/1 194/3/1 193/4/1
f 201/1/1 202/2/1 196/3/1 195/4/1
f 202/1/1 203/2/1 197/3/1 196/4/1
f 203/1/1 204/2/1 205/3/1 197/4/1
f 204/1/1 206/2/1 207/3/1 205/4/1
f 208/1/1 209/2/1 210/3/1 211/4/1
f 209/1/1 212/2/1 213/3/1 210/4/1
f 212/1/1 214/2/1 215/3/1 213/4/1
f 214/1/1 216/2/1 217/3/1 215/4/1
f 216/1/1 218/2/1 219/3/1 217/4/1
f 218/1/1 220/2/1 221/3/1 219/4/1
f 220/1/1 222/2/1 223/3/1 221/4/1
f 222/1/1 224/2/1 225/3/1 223/4/1
f 224/1/1 226/2/1 227/3/1 225/4/1
f 226/1/1 228/2/1 229/3/1 227/4/1
f 228/1/1 230/2/1 231/3/1 229/4/1
f 232/1/1 233/2/1 234/3/1 235/4/1
f 233/1/1 236/2/1 198/3/1 234/4/1
f 236/1/1 237/2/1 199/3/1 198/4/1
f 237/1/1 238/2/1 200/3/1 199/4/1
f 239/1/1 240/2/1 202/3/1 201/4/1
f 240/1/1 241/2/1 203/3/1 202/4/1
f 242/1/1 243/2/1 237/3/1 236/4/1
f 243/1/1 244/2/1 238/3/1 237/4/1
f 245/1/1 246/2/1 240/3/1 239/4/1
f 246/1/1 247/2/1 241/3/1 240/4/1
f 248/1/1 249/2/1 243/3/1 242/4/1
f 249/1/1 250/2/1 244/3/1 243/4/1
f 251/1/1 252/2/1 246/3/1 245/4/1
f 252/1/1 253/2/1 247/3/1 246/4/1
f 254/1/1 255/2/1 249/3/1 248/4/1
f 255/1/1 256/2/1 250/3/1 249/4/1
f 257/1/1 258/2/1 252/3/1 251/4/1
f 258/1/1 259/2/1 253/3/1 252/4/1
f 259/1/1 260/2/1 261/3/1 253/4/1
f 260/1/1 262/2/1 263/3/1 261/4/1
f 262/1/1 264/2/1 265/3/1 263/4/1
f 264/1/1 266/2/1 267/3/1 265/4/1
f 266/1/1 268/2/1 269/3/1 267/4/1
f 268/1/1 270/2/1 271/3/1 269/4/1
f 270/1/1 272/2/1 273/3/1 271/4/1
f 272/1/1 274/2/1 275/3/1 273/4/1
f 274/1/1 276/2/1 277/3/1 275/4/1
f 276/1/1 278/2/1 279/3/1 277/4/1
f 278/1/1 280/2/1 281/3/1 279/4/1
f 280/1/1 282/2/1 283/3/1 281/4/1
f 282/1/1 284/2/1 285/3/1 283/4/1
f 284/1/1 286/2/1 287/3/1 285/4/1
f 286/1/1 288/2/1 289/3/1 287/4/1
f 288/1/1 290/2/1 291/3/1 289/4/1
f 290/1/1 292/2/1 293/3/1 291/4/1
f 292/1/1 294/2/1 295/3/1 293/4/1
f 294/1/1 296/2/1 297/3/1 295/4/1
f 296/1/1 298/2/1 299/3/1 297/4/1
f 298/1/1 300/2/1 254/3/1 299/4/1
f 300/1/1 301/2/1 255/3/1 254/4/1
f 301/1/1 302/2/1 256/3/1 255/4/1

