# Wavefront OBJ file automatically generated by Tiled2Unity

# Vertices (Count = 259)
v -32 -16 0
v -48 -16 0
v -48 0 0
v -32 0 0
v -64 -16 0
v -64 0 0
v -80 -16 0
v -80 0 0
v -96 -16 0
v -96 0 0
v -112 -16 0
v -112 0 0
v -160 -16 0
v -176 -16 0
v -176 0 0
v -160 0 0
v -192 -16 0
v -192 0 0
v -208 -16 0
v -208 0 0
v -224 -16 0
v -224 0 0
v -240 -16 0
v -240 0 0
v -288 -16 0
v -304 -16 0
v -304 0 0
v -288 0 0
v -320 -16 0
v -320 0 0
v -336 -16 0
v -336 0 0
v -352 -16 0
v -352 0 0
v -368 -16 0
v -368 0 0
v -80 -80 0
v -96 -80 0
v -96 -64 0
v -80 -64 0
v -112 -80 0
v -112 -64 0
v -128 -80 0
v -128 -64 0
v -144 -80 0
v -144 -64 0
v -160 -80 0
v -160 -64 0
v -176 -80 0
v -176 -64 0
v -192 -80 0
v -192 -64 0
v -208 -80 0
v -208 -64 0
v -224 -80 0
v -224 -64 0
v -240 -80 0
v -240 -64 0
v -256 -80 0
v -256 -64 0
v -272 -80 0
v -272 -64 0
v -288 -80 0
v -288 -64 0
v -304 -80 0
v -304 -64 0
v -320 -80 0
v -320 -64 0
v -336 -80 0
v -336 -64 0
v -352 -80 0
v -352 -64 0
v -368 -80 0
v -368 -64 0
v -32 -144 0
v -48 -144 0
v -48 -128 0
v -32 -128 0
v -64 -144 0
v -64 -128 0
v -80 -144 0
v -80 -128 0
v -96 -144 0
v -96 -128 0
v -112 -144 0
v -112 -128 0
v -128 -144 0
v -128 -128 0
v -144 -144 0
v -144 -128 0
v -160 -144 0
v -160 -128 0
v -176 -144 0
v -176 -128 0
v -192 -144 0
v -192 -128 0
v -208 -144 0
v -208 -128 0
v -224 -144 0
v -224 -128 0
v -240 -144 0
v -240 -128 0
v -256 -144 0
v -256 -128 0
v -272 -144 0
v -272 -128 0
v -288 -144 0
v -288 -128 0
v -304 -144 0
v -304 -128 0
v -320 -144 0
v -320 -128 0
v -80 -208 0
v -96 -208 0
v -96 -192 0
v -80 -192 0
v -112 -208 0
v -112 -192 0
v -128 -208 0
v -128 -192 0
v -144 -208 0
v -144 -192 0
v -160 -208 0
v -160 -192 0
v -176 -208 0
v -176 -192 0
v -192 -208 0
v -192 -192 0
v -208 -208 0
v -208 -192 0
v -224 -208 0
v -224 -192 0
v -240 -208 0
v -240 -192 0
v -256 -208 0
v -256 -192 0
v -272 -208 0
v -272 -192 0
v -288 -208 0
v -288 -192 0
v -304 -208 0
v -304 -192 0
v -320 -208 0
v -320 -192 0
v -336 -208 0
v -336 -192 0
v -352 -208 0
v -352 -192 0
v -368 -208 0
v -368 -192 0
v -64 -272 0
v -80 -272 0
v -80 -256 0
v -64 -256 0
v -96 -272 0
v -96 -256 0
v -112 -272 0
v -112 -256 0
v -128 -272 0
v -128 -256 0
v -144 -272 0
v -144 -256 0
v -160 -272 0
v -160 -256 0
v -176 -272 0
v -176 -256 0
v -192 -272 0
v -192 -256 0
v -208 -272 0
v -224 -272 0
v -224 -256 0
v -208 -256 0
v -240 -272 0
v -240 -256 0
v -256 -272 0
v -256 -256 0
v -272 -272 0
v -272 -256 0
v -288 -272 0
v -288 -256 0
v -304 -272 0
v -304 -256 0
v -320 -272 0
v -320 -256 0
v -336 -272 0
v -336 -256 0
v -32 -320 0
v -48 -320 0
v -48 -304 0
v -32 -304 0
v -64 -320 0
v -64 -304 0
v -80 -320 0
v -80 -304 0
v -96 -320 0
v -96 -304 0
v -112 -320 0
v -112 -304 0
v -160 -320 0
v -176 -320 0
v -176 -304 0
v -160 -304 0
v -192 -320 0
v -192 -304 0
v -208 -320 0
v -208 -304 0
v -224 -320 0
v -224 -304 0
v -240 -320 0
v -240 -304 0
v -288 -320 0
v -304 -320 0
v -304 -304 0
v -288 -304 0
v -320 -320 0
v -320 -304 0
v -336 -320 0
v -336 -304 0
v -352 -320 0
v -352 -304 0
v -368 -320 0
v -368 -304 0
v 0 -32 0
v -32 -32 0
v 0 0 0
v -368 -32 0
v -400 -32 0
v -400 0 0
v 0 -64 0
v -32 -64 0
v -400 -64 0
v 0 -96 0
v -32 -96 0
v -368 -96 0
v -400 -96 0
v 0 -128 0
v -368 -128 0
v -400 -128 0
v 0 -160 0
v -32 -160 0
v -368 -160 0
v -400 -160 0
v 0 -192 0
v -32 -192 0
v -400 -192 0
v 0 -224 0
v -32 -224 0
v -368 -224 0
v -400 -224 0
v 0 -256 0
v -32 -256 0
v -368 -256 0
v -400 -256 0
v 0 -288 0
v -32 -288 0
v -368 -288 0
v -400 -288 0
v 0 -320 0
v -400 -320 0

# Texture cooridinates (Count = 4)
vt 0.0001220703 0.0001220703
vt 0.9998779 0.0001220703
vt 0.9998779 0.9998779
vt 0.0001220703 0.9998779

# Normal
vn 0 0 -1

# Groups (Count = 1)

g mesh_0001
f 1/1/1 2/2/1 3/3/1 4/4/1
f 2/1/1 5/2/1 6/3/1 3/4/1
f 5/1/1 7/2/1 8/3/1 6/4/1
f 7/1/1 9/2/1 10/3/1 8/4/1
f 9/1/1 11/2/1 12/3/1 10/4/1
f 13/1/1 14/2/1 15/3/1 16/4/1
f 14/1/1 17/2/1 18/3/1 15/4/1
f 17/1/1 19/2/1 20/3/1 18/4/1
f 19/1/1 21/2/1 22/3/1 20/4/1
f 21/1/1 23/2/1 24/3/1 22/4/1
f 25/1/1 26/2/1 27/3/1 28/4/1
f 26/1/1 29/2/1 30/3/1 27/4/1
f 29/1/1 31/2/1 32/3/1 30/4/1
f 31/1/1 33/2/1 34/3/1 32/4/1
f 33/1/1 35/2/1 36/3/1 34/4/1
f 37/1/1 38/2/1 39/3/1 40/4/1
f 38/1/1 41/2/1 42/3/1 39/4/1
f 41/1/1 43/2/1 44/3/1 42/4/1
f 43/1/1 45/2/1 46/3/1 44/4/1
f 45/1/1 47/2/1 48/3/1 46/4/1
f 47/1/1 49/2/1 50/3/1 48/4/1
f 49/1/1 51/2/1 52/3/1 50/4/1
f 51/1/1 53/2/1 54/3/1 52/4/1
f 53/1/1 55/2/1 56/3/1 54/4/1
f 55/1/1 57/2/1 58/3/1 56/4/1
f 57/1/1 59/2/1 60/3/1 58/4/1
f 59/1/1 61/2/1 62/3/1 60/4/1
f 61/1/1 63/2/1 64/3/1 62/4/1
f 63/1/1 65/2/1 66/3/1 64/4/1
f 65/1/1 67/2/1 68/3/1 66/4/1
f 67/1/1 69/2/1 70/3/1 68/4/1
f 69/1/1 71/2/1 72/3/1 70/4/1
f 71/1/1 73/2/1 74/3/1 72/4/1
f 75/1/1 76/2/1 77/3/1 78/4/1
f 76/1/1 79/2/1 80/3/1 77/4/1
f 79/1/1 81/2/1 82/3/1 80/4/1
f 81/1/1 83/2/1 84/3/1 82/4/1
f 83/1/1 85/2/1 86/3/1 84/4/1
f 85/1/1 87/2/1 88/3/1 86/4/1
f 87/1/1 89/2/1 90/3/1 88/4/1
f 89/1/1 91/2/1 92/3/1 90/4/1
f 91/1/1 93/2/1 94/3/1 92/4/1
f 93/1/1 95/2/1 96/3/1 94/4/1
f 95/1/1 97/2/1 98/3/1 96/4/1
f 97/1/1 99/2/1 100/3/1 98/4/1
f 99/1/1 101/2/1 102/3/1 100/4/1
f 101/1/1 103/2/1 104/3/1 102/4/1
f 103/1/1 105/2/1 106/3/1 104/4/1
f 105/1/1 107/2/1 108/3/1 106/4/1
f 107/1/1 109/2/1 110/3/1 108/4/1
f 109/1/1 111/2/1 112/3/1 110/4/1
f 113/1/1 114/2/1 115/3/1 116/4/1
f 114/1/1 117/2/1 118/3/1 115/4/1
f 117/1/1 119/2/1 120/3/1 118/4/1
f 119/1/1 121/2/1 122/3/1 120/4/1
f 121/1/1 123/2/1 124/3/1 122/4/1
f 123/1/1 125/2/1 126/3/1 124/4/1
f 125/1/1 127/2/1 128/3/1 126/4/1
f 127/1/1 129/2/1 130/3/1 128/4/1
f 129/1/1 131/2/1 132/3/1 130/4/1
f 131/1/1 133/2/1 134/3/1 132/4/1
f 133/1/1 135/2/1 136/3/1 134/4/1
f 135/1/1 137/2/1 138/3/1 136/4/1
f 137/1/1 139/2/1 140/3/1 138/4/1
f 139/1/1 141/2/1 142/3/1 140/4/1
f 141/1/1 143/2/1 144/3/1 142/4/1
f 143/1/1 145/2/1 146/3/1 144/4/1
f 145/1/1 147/2/1 148/3/1 146/4/1
f 147/1/1 149/2/1 150/3/1 148/4/1
f 151/1/1 152/2/1 153/3/1 154/4/1
f 152/1/1 155/2/1 156/3/1 153/4/1
f 155/1/1 157/2/1 158/3/1 156/4/1
f 157/1/1 159/2/1 160/3/1 158/4/1
f 159/1/1 161/2/1 162/3/1 160/4/1
f 161/1/1 163/2/1 164/3/1 162/4/1
f 163/1/1 165/2/1 166/3/1 164/4/1
f 165/1/1 167/2/1 168/3/1 166/4/1
f 169/1/1 170/2/1 171/3/1 172/4/1
f 170/1/1 173/2/1 174/3/1 171/4/1
f 173/1/1 175/2/1 176/3/1 174/4/1
f 175/1/1 177/2/1 178/3/1 176/4/1
f 177/1/1 179/2/1 180/3/1 178/4/1
f 179/1/1 181/2/1 182/3/1 180/4/1
f 181/1/1 183/2/1 184/3/1 182/4/1
f 183/1/1 185/2/1 186/3/1 184/4/1
f 187/1/1 188/2/1 189/3/1 190/4/1
f 188/1/1 191/2/1 192/3/1 189/4/1
f 191/1/1 193/2/1 194/3/1 192/4/1
f 193/1/1 195/2/1 196/3/1 194/4/1
f 195/1/1 197/2/1 198/3/1 196/4/1
f 199/1/1 200/2/1 201/3/1 202/4/1
f 200/1/1 203/2/1 204/3/1 201/4/1
f 203/1/1 205/2/1 206/3/1 204/4/1
f 205/1/1 207/2/1 208/3/1 206/4/1
f 207/1/1 209/2/1 210/3/1 208/4/1
f 211/1/1 212/2/1 213/3/1 214/4/1
f 212/1/1 215/2/1 216/3/1 213/4/1
f 215/1/1 217/2/1 218/3/1 216/4/1
f 217/1/1 219/2/1 220/3/1 218/4/1
f 219/1/1 221/2/1 222/3/1 220/4/1

g mesh_0002
f 223/1/1 224/2/1 4/3/1 225/4/1
f 226/1/1 227/2/1 228/3/1 36/4/1
f 229/1/1 230/2/1 224/3/1 223/4/1
f 74/1/1 231/2/1 227/3/1 226/4/1
f 232/1/1 233/2/1 230/3/1 229/4/1
f 234/1/1 235/2/1 231/3/1 74/4/1
f 236/1/1 78/2/1 233/3/1 232/4/1
f 237/1/1 238/2/1 235/3/1 234/4/1
f 239/1/1 240/2/1 78/3/1 236/4/1
f 241/1/1 242/2/1 238/3/1 237/4/1
f 243/1/1 244/2/1 240/3/1 239/4/1
f 150/1/1 245/2/1 242/3/1 241/4/1
f 246/1/1 247/2/1 244/3/1 243/4/1
f 248/1/1 249/2/1 245/3/1 150/4/1
f 250/1/1 251/2/1 247/3/1 246/4/1
f 252/1/1 253/2/1 249/3/1 248/4/1
f 254/1/1 255/2/1 251/3/1 250/4/1
f 256/1/1 257/2/1 253/3/1 252/4/1
f 258/1/1 187/2/1 255/3/1 254/4/1
f 221/1/1 259/2/1 257/3/1 256/4/1

